<svg xmlns="http://www.w3.org/2000/svg" viewBox="0 0 319.25 201.43"><defs><style>.cls-1{fill:#00f7c8;}.cls-2{fill:#00d4b4;}.cls-3{fill:#8dffe9;}.cls-4{fill:#00e2bc;}.cls-5{fill:#31ffd7;}.cls-6{fill:#fdffff;}.cls-7{fill:#fff;}.cls-8{fill:#00c6a5;}</style></defs><path class="cls-1" d="M206.43,90.63l-.15-.41c-.42-1.12-.88-2.21-1.36-3.3-.07-.13-.13-.26-.19-.39A54.21,54.21,0,0,0,178.4,60.19l-3.69,3.69-.41.41L156,82.62l-.28.29-7.31,7.31-5.16,5.16a18.52,18.52,0,0,1,11.44-4.75c.34,0,.68,0,1,0s.69,0,1,0a18.46,18.46,0,0,1,11.42,4.74,18.89,18.89,0,0,1,1.42,1.41l5.16,5.17,7.3,7.3.29.29L204.73,132c.06-.13.12-.27.19-.4.49-1.08.94-2.18,1.36-3.29l.15-.41a54.34,54.34,0,0,0,0-37.24ZM201,90.22h.58l-.41.41h-.58Z"/><path class="cls-2" d="M168.13,123.13l-4.74,4.74-7.71,7.72-.29.29-2.3,2.3A27.66,27.66,0,0,1,138.91,133v19.31l-1.86,1.86-4.09,4.1a53.41,53.41,0,0,1-5.63-3A54.2,54.2,0,0,1,106.62,132c-.06-.13-.13-.26-.18-.39-.49-1.08-1-2.18-1.37-3.3l-.15-.41a54.18,54.18,0,0,1,0-37.24l.15-.41c.42-1.11.88-2.21,1.37-3.29,0-.13.12-.27.18-.4l4.1,4.1,16.78,16.79,1.55,1.55.29.28,12.46,12.46a15.64,15.64,0,0,0,1.41,1.41,18.5,18.5,0,0,0,11.44,4.75c.34,0,.68,0,1,0s.69,0,1,0A18.44,18.44,0,0,0,168.13,123.13Z"/><path class="cls-3" d="M153.09,138.18l-14.18,14.17V133A27.66,27.66,0,0,0,153.09,138.18Z"/><path class="cls-2" d="M168.13,123.13l-4.74,4.74-7.71,7.72-.29.29-2.3,2.3A27.66,27.66,0,0,1,138.91,133v19.31l-1.86,1.86-4.09,4.1a53.41,53.41,0,0,1-5.63-3A54.2,54.2,0,0,1,106.62,132c-.06-.13-.13-.26-.18-.39-.49-1.08-1-2.18-1.37-3.3l-.15-.41a54.18,54.18,0,0,1,0-37.24l.15-.41c.42-1.11.88-2.21,1.37-3.29,0-.13.12-.27.18-.4l4.1,4.1,16.78,16.79,1.55,1.55.29.28,12.46,12.46a15.64,15.64,0,0,0,1.41,1.41,18.5,18.5,0,0,0,11.44,4.75c.34,0,.68,0,1,0s.69,0,1,0A18.44,18.44,0,0,0,168.13,123.13Z"/><path class="cls-4" d="M178.4,60.19l-3.69,3.69-.41.41L156,82.62l-.28.29-7.31,7.31-5.16,5.16a18.68,18.68,0,0,0-6.16,12.84c0,.34,0,.68,0,1s0,.69,0,1a18.57,18.57,0,0,0,4.75,11.43l-12.46-12.46-.28-.29L110.72,90.63l-.41-.41-3.69-3.69A54.31,54.31,0,0,1,133,60.19l.39-.18c1.08-.49,2.18-.94,3.3-1.37l.4-.15a54.36,54.36,0,0,1,37.25,0l.41.15c1.11.43,2.21.88,3.29,1.37Z"/><path class="cls-5" d="M204.73,132a54.23,54.23,0,0,1-26.34,26.34l-.39.18c-1.08.49-2.18.95-3.29,1.37-.14,0-.27.1-.41.15a54.45,54.45,0,0,1-35.39.65c-.63-.21-1.25-.42-1.86-.65-.14,0-.27-.11-.41-.15-1.11-.42-2.21-.88-3.29-1.37l-.39-.18,4.09-4.1,1.86-1.86,14.18-14.17,2.3-2.3.29-.29,7.71-7.72,4.74-4.74,0,0a15,15,0,0,0,1.38-1.38l0,0a18.56,18.56,0,0,0,4.75-11.5c0-.31,0-.63,0-1s0-.64,0-1a18.56,18.56,0,0,0-4.76-11.51l5.17,5.16Z"/><path class="cls-6" d="M182.93,110.46a27.8,27.8,0,0,1-27.8,27.8c-.69,0-1.37,0-2-.08a27.78,27.78,0,0,1-25.76-27.72c0-.13,0-.25,0-.38a23.31,23.31,0,0,1,.16-2.66,27.79,27.79,0,0,1,27.63-24.76c.26,0,.52,0,.78,0a27.77,27.77,0,0,1,27,27.48C182.93,110.26,182.93,110.36,182.93,110.46Z"/><circle class="cls-2" cx="155.13" cy="111.77" r="13.71"/><polygon class="cls-7" points="138.91 111.56 138.91 160.72 127.33 160.72 127.33 110.08 127.34 110.08 130.59 110.5 137.14 111.33 138.91 111.56"/><path class="cls-8" d="M127.33,155.28v8H101.62V109.25a53.9,53.9,0,0,0,3.3,18.62l.15.41c.42,1.12.88,2.22,1.37,3.3,0,.13.12.26.18.39A54.2,54.2,0,0,0,127.33,155.28Z"/></svg>