<svg xmlns="http://www.w3.org/2000/svg" viewBox="0 0 319.25 201.43"><defs><style>.cls-1{fill:#00d4b4;}</style></defs><path class="cls-1" d="M19.86,140.62H19V102.41l0-19.26a33.43,33.43,0,0,1,2.32-11.93,26.71,26.71,0,0,1,3.12-5.69,27.52,27.52,0,0,1,4.4-4.81,27,27,0,0,1,11.62-5.8,34,34,0,0,1,12.24-.45,30.45,30.45,0,0,1,6.12,1.62,27.74,27.74,0,0,1,5.74,3,28.09,28.09,0,0,1,4.88,4.26,27.22,27.22,0,0,1,3.78,5.3,27.51,27.51,0,0,1,3.31,12.46,30.94,30.94,0,0,1-.47,6.27,25.76,25.76,0,0,1-2,6.3,24.58,24.58,0,0,1-3.56,5.64,27.94,27.94,0,0,1-4.69,4.47,28.88,28.88,0,0,1-11.65,5.12l-.16-.82a28.05,28.05,0,0,0,11.3-5,26.71,26.71,0,0,0,4.55-4.34,24.44,24.44,0,0,0,3.45-5.45,25.11,25.11,0,0,0,1.91-6.1,30.71,30.71,0,0,0,.46-6.1,26.56,26.56,0,0,0-3.21-12.08,25.85,25.85,0,0,0-3.67-5.13,26.71,26.71,0,0,0-10.29-7,28.78,28.78,0,0,0-6-1.57,30.29,30.29,0,0,0-6-.32,31.51,31.51,0,0,0-5.93.75,26.14,26.14,0,0,0-11.26,5.61A27.8,27.8,0,0,0,25.16,66a26.42,26.42,0,0,0-3,5.52,32.61,32.61,0,0,0-2.26,11.62l0,19.25Z"/><path class="cls-1" d="M26.78,133.92h-.84V85.35c0-1.3,0-2.66.11-4a27.45,27.45,0,0,1,.8-4.77A21.15,21.15,0,0,1,31.32,68a19.55,19.55,0,0,1,7.93-5.52,25.35,25.35,0,0,1,9.54-1.45,23,23,0,0,1,9.39,2.29A20.48,20.48,0,0,1,69.39,78.41a23,23,0,0,1-.54,9.64,18.65,18.65,0,0,1-4.94,8.3,20.84,20.84,0,0,1-8.24,5,28.14,28.14,0,0,1-9.56,1.28l0-.84a27.32,27.32,0,0,0,9.28-1.24,20,20,0,0,0,7.91-4.84A17.87,17.87,0,0,0,68,87.82a22.2,22.2,0,0,0,.51-9.29A19.61,19.61,0,0,0,57.81,64.09a22.17,22.17,0,0,0-9-2.2,24.49,24.49,0,0,0-9.22,1.4A18.77,18.77,0,0,0,32,68.57a20.27,20.27,0,0,0-4.28,8.22,25.86,25.86,0,0,0-.78,4.63c-.11,1.31-.11,2.64-.11,3.93Z"/><path class="cls-1" d="M23.32,147.32h-.84V84l0-1.32c0-1,.11-1.84.2-2.69a27.27,27.27,0,0,1,3.35-10.55A23.63,23.63,0,0,1,33.9,61.3a24.8,24.8,0,0,1,10.64-3.54A31.46,31.46,0,0,1,50,57.65a26.4,26.4,0,0,1,5.49,1,24.18,24.18,0,0,1,9.84,5.46,23.79,23.79,0,0,1,6.32,9.35A25.23,25.23,0,0,1,73,84.52a22.68,22.68,0,0,1-3.73,10.74,23.89,23.89,0,0,1-8.35,7.6l-.41-.73a23.2,23.2,0,0,0,8.07-7.34,22.35,22.35,0,0,0,3.58-10.35,24.46,24.46,0,0,0-1.32-10.73,23.06,23.06,0,0,0-6.1-9,23.37,23.37,0,0,0-9.5-5.27,25.43,25.43,0,0,0-5.32-.93,30.87,30.87,0,0,0-5.31.11A23.82,23.82,0,0,0,34.35,62a22.59,22.59,0,0,0-7.57,7.88,26.08,26.08,0,0,0-3.24,10.22c-.09.82-.15,1.68-.19,2.61l0,2.5Z"/><path class="cls-1" d="M30.24,147.32H29.4V84l0-1.08c0-.79.08-1.49.16-2.16A19.79,19.79,0,0,1,32,72.93a16.68,16.68,0,0,1,5.53-5.76,17.68,17.68,0,0,1,7.7-2.53,21.78,21.78,0,0,1,8.31.62,17.4,17.4,0,0,1,7.06,3.9,16.94,16.94,0,0,1,4.51,6.65,18.3,18.3,0,0,1,1,8.07,16,16,0,0,1-2.59,7.53A17.13,17.13,0,0,1,57.6,96.8l-.41-.74a16.23,16.23,0,0,0,5.65-5.12,15,15,0,0,0,2.44-7.14,17.48,17.48,0,0,0-.92-7.69,16.1,16.1,0,0,0-4.29-6.33,16.61,16.61,0,0,0-6.73-3.71,20.88,20.88,0,0,0-8-.59A16.77,16.77,0,0,0,38,67.88a15.84,15.84,0,0,0-5.25,5.48,19.11,19.11,0,0,0-2.36,7.53c-.07.65-.12,1.34-.15,2.1l0,2.24Z"/><path class="cls-1" d="M33.7,133.92h-.85V83.84c0-.61,0-1.24.08-1.92a21.26,21.26,0,0,1,.6-3.57,14,14,0,0,1,3-5.78A12.57,12.57,0,0,1,41.68,69,16.3,16.3,0,0,1,45,68.16c.55-.08,1.15-.14,1.79-.17s1.29,0,1.83,0a16.77,16.77,0,0,1,3.41.46,16.05,16.05,0,0,1,3.15,1.12,13.46,13.46,0,0,1,2.7,1.76,14.81,14.81,0,0,1,2.25,2.37,13.05,13.05,0,0,1,2.48,5.84,16.14,16.14,0,0,1,.16,3.38,15.22,15.22,0,0,1-.52,3.26A11.9,11.9,0,0,1,59,91.44a13.79,13.79,0,0,1-5.54,3.38,17.72,17.72,0,0,1-3.41.75c-.58.08-1.19.12-1.85.16l-2.12,0v-.84l2.09,0c.63,0,1.21-.07,1.77-.14A17.88,17.88,0,0,0,53.24,94a13,13,0,0,0,5.21-3.18,10.94,10.94,0,0,0,2.94-4.92,14.7,14.7,0,0,0,.49-3.07,15.21,15.21,0,0,0-.15-3.21,12.39,12.39,0,0,0-2.32-5.47,14.87,14.87,0,0,0-2.12-2.23,13,13,0,0,0-2.54-1.64,14.89,14.89,0,0,0-3-1.07,15.7,15.7,0,0,0-3.23-.42c-.52,0-1.15,0-1.76,0a16.69,16.69,0,0,0-1.72.17,15,15,0,0,0-3.09.77,11.75,11.75,0,0,0-4.82,3.35,13.3,13.3,0,0,0-2.81,5.44A19.8,19.8,0,0,0,33.78,82c-.05.66-.07,1.27-.08,1.85v50.08Z"/><path class="cls-1" d="M246.41,127.37a28.51,28.51,0,0,1-3.06-.16,27.44,27.44,0,0,1-4.89-.94,24.88,24.88,0,0,1-4.77-1.91A26.41,26.41,0,0,1,220,104.09a28.56,28.56,0,0,1-.11-5A26.42,26.42,0,0,1,225.12,85c.5-.67,1-1.32,1.61-2s1-1.09,1.68-1.72a24.92,24.92,0,0,1,4.12-3.14,25.64,25.64,0,0,1,9.58-3.4,29.84,29.84,0,0,1,4.91-.29,27.91,27.91,0,0,1,5,.56,25.4,25.4,0,0,1,9.34,4,27.56,27.56,0,0,1,7,7.08l.2.3c.05.07.1.13.18.26l.49.79c.24.37.46.78.68,1.17l.27.49c.21.36.39.74.56,1.1.09.2.19.4.29.59l.49,1.12c.08.2.16.39.25.59l1.94,4.9a.58.58,0,0,1,.05.35l0,.16-4,2.59a7.73,7.73,0,0,1-.82.5l-14.22,7.74-.4-.74,14.22-7.74c.28-.15.52-.3.76-.46l3.55-2.31L271,92.93l-.25-.6c-.15-.35-.3-.71-.47-1.07-.1-.19-.19-.39-.29-.59-.18-.37-.34-.72-.54-1.06l-.27-.5c-.21-.37-.42-.76-.65-1.11l-.5-.81-.15-.22-.21-.31a26.61,26.61,0,0,0-6.78-6.85,24.45,24.45,0,0,0-9-3.88,25.21,25.21,0,0,0-4.81-.54,27.17,27.17,0,0,0-4.77.28A24.81,24.81,0,0,0,233,79a23.62,23.62,0,0,0-4,3c-.64.61-1.09,1.08-1.65,1.68s-1.07,1.24-1.56,1.89a25.5,25.5,0,0,0-5,13.62,27.69,27.69,0,0,0,.11,4.82A25.68,25.68,0,0,0,230,120.86a25.7,25.7,0,0,0,4.12,2.75,23.25,23.25,0,0,0,4.61,1.85,27.41,27.41,0,0,0,4.74.92,30,30,0,0,0,4.75.1,28.48,28.48,0,0,0,9.27-2.16,34.26,34.26,0,0,0,7.89-4.71l.51.66a34.76,34.76,0,0,1-8.08,4.82,29.3,29.3,0,0,1-9.55,2.23C247.62,127.35,247,127.37,246.41,127.37Z"/><path class="cls-1" d="M246.43,121.83a24.58,24.58,0,0,1-4.1-.35,19.47,19.47,0,0,1-7.44-2.85,20.49,20.49,0,0,1-5.72-5.53,21,21,0,0,1-3.22-7.27,22.1,22.1,0,0,1-.32-8,20.91,20.91,0,0,1,2.6-7.52,22.19,22.19,0,0,1,5.21-6c8.45-6.74,22.21-5.26,28.88,3.09a26.16,26.16,0,0,1,4.1,6.79c.05.15.11.27.16.4a1.4,1.4,0,0,1,.18,1.22.94.94,0,0,1-.68.46L247.19,106.6l-.4-.74L265.85,95.5a.42.42,0,0,0,.17,0s-.13-.31-.2-.47a4.1,4.1,0,0,1-.19-.46,25.27,25.27,0,0,0-4-6.54c-6.4-8-19.6-9.43-27.71-3a21.49,21.49,0,0,0-5,5.79,20.24,20.24,0,0,0-2.5,7.21,21.52,21.52,0,0,0,.31,7.64,20.15,20.15,0,0,0,3.1,7,19.62,19.62,0,0,0,5.48,5.3,18.81,18.81,0,0,0,7.12,2.72,23,23,0,0,0,14.93-2.44l.4.74a24.22,24.22,0,0,1-7.52,2.57A23.8,23.8,0,0,1,246.43,121.83Z"/><path class="cls-1" d="M246.42,124.6l-1,0a25,25,0,0,1-8.76-1.88,21.44,21.44,0,0,1-4-2.23,23.15,23.15,0,0,1-3.44-3,23.78,23.78,0,0,1-6.57-16.41,24,24,0,0,1,1.62-8.84,23.3,23.3,0,0,1,4.82-7.62l.74-.77c.27-.27.55-.53.83-.79a20.83,20.83,0,0,1,1.78-1.45,21.49,21.49,0,0,1,4-2.3,23.89,23.89,0,0,1,8.77-2,24.41,24.41,0,0,1,8.88,1.2,23,23,0,0,1,7.83,4.53,25.26,25.26,0,0,1,3.1,3.26c.4.5.82,1.07,1.31,1.79l.22.36c.18.28.37.58.54.87l.25.45c.16.27.32.55.46.83a49.8,49.8,0,0,1,2.09,4.74l.42,1,.08.1,0,.24a.52.52,0,0,1-.27.33l-1.64,1-.7.43c-.55.33-1.11.68-1.74,1l-7.8,4.25-.41-.74,7.82-4.26c.6-.31,1.15-.65,1.68-1l.71-.43,1.42-.87-.33-.82c-.65-1.62-1.26-3.14-2.06-4.68-.13-.27-.29-.53-.44-.8l-.25-.44c-.16-.28-.34-.56-.52-.84l-.22-.35c-.47-.69-.87-1.24-1.26-1.73a24.86,24.86,0,0,0-3-3.15,22.31,22.31,0,0,0-7.55-4.36,23.83,23.83,0,0,0-8.57-1.16,23.32,23.32,0,0,0-8.47,1.93,20.75,20.75,0,0,0-3.82,2.21c-.59.43-1.16.9-1.71,1.39l-.79.76-.73.76A22.65,22.65,0,0,0,225,92.56a23.16,23.16,0,0,0,4.77,24.37,22.17,22.17,0,0,0,3.33,2.85,20.3,20.3,0,0,0,3.85,2.14,23.78,23.78,0,0,0,8.46,1.82,25.64,25.64,0,0,0,8.52-1.11,28.45,28.45,0,0,0,7.65-3.73,43,43,0,0,0,6.34-5.34l.6.6a44.7,44.7,0,0,1-6.47,5.44,29.71,29.71,0,0,1-7.88,3.84A26.66,26.66,0,0,1,246.42,124.6Zm23.24-28.26h0Z"/><path class="cls-1" d="M246.43,119.05h-.81a19.56,19.56,0,0,1-6.8-1.45,14.75,14.75,0,0,1-3-1.67,17,17,0,0,1-2.62-2.24,18.55,18.55,0,0,1-3.73-5.81,18.91,18.91,0,0,1,0-13.6,17.67,17.67,0,0,1,3.68-5.83l.63-.65q.31-.32.63-.6a15,15,0,0,1,1.33-1.08,16.44,16.44,0,0,1,3-1.72,18.41,18.41,0,0,1,6.74-1.52,19,19,0,0,1,6.89.92,17.2,17.2,0,0,1,5.94,3.44,18.62,18.62,0,0,1,2.4,2.53c.4.5.77,1,1,1.42s.41.64.57.94a16.67,16.67,0,0,1,.9,1.9l.15.39-.05.15a.66.66,0,0,1-.34.33l-.06,0-7.32,4-.4-.74,7.2-3.92a13.67,13.67,0,0,0-.82-1.72c-.16-.29-.33-.57-.53-.88s-.61-.89-1-1.36a18.93,18.93,0,0,0-2.29-2.43A16.75,16.75,0,0,0,252,84.58a18.47,18.47,0,0,0-6.59-.87A17.39,17.39,0,0,0,239,85.16a15.28,15.28,0,0,0-2.8,1.63,13.69,13.69,0,0,0-1.26,1l-.6.57-.62.64a17,17,0,0,0-3.51,5.55,17.62,17.62,0,0,0,3.61,18.53,17.2,17.2,0,0,0,2.5,2.14,15.52,15.52,0,0,0,2.83,1.58,18.75,18.75,0,0,0,6.5,1.38,20.25,20.25,0,0,0,6.69-.87c3.86-1.17,7.79-3.75,11.68-7.67l.6.59c-4,4-8,6.68-12,7.89A20.83,20.83,0,0,1,246.43,119.05Z"/><path class="cls-1" d="M246.42,116.28h-.09a17,17,0,0,1-3.05-.27,14.15,14.15,0,0,1-5.38-2,15,15,0,0,1-4.17-4,15.31,15.31,0,0,1-2.37-5.35,16.66,16.66,0,0,1-.24-5.94A15.27,15.27,0,0,1,233,93.15a14.53,14.53,0,0,1,1.71-2.37c.17-.2.31-.35.52-.57l.17-.18c.14-.14.28-.29.4-.4a11.92,11.92,0,0,1,1.07-.95A13.54,13.54,0,0,1,242,86.16a16,16,0,0,1,2.94-.49,19.54,19.54,0,0,1,3.06,0,14.8,14.8,0,0,1,5.55,1.62A15.81,15.81,0,0,1,258.09,91c.29.34.6.73.93,1.19l.41.61.09.16.09.12,0,.25a.52.52,0,0,1-.3.34l-14.75,8-.4-.74,14.47-7.88-.28-.4c-.31-.43-.6-.81-.89-1.14a14.86,14.86,0,0,0-4.31-3.5,13.8,13.8,0,0,0-5.23-1.53,17.78,17.78,0,0,0-2.92,0,16.41,16.41,0,0,0-2.79.46,12.88,12.88,0,0,0-4.77,2.37c-.34.28-.68.58-1,.89l-.37.39-.18.18-.49.53a13.94,13.94,0,0,0-1.61,2.24A14.45,14.45,0,0,0,232,98.78a15.85,15.85,0,0,0,.23,5.63,14.49,14.49,0,0,0,2.25,5.06,14,14,0,0,0,3.93,3.8,13.34,13.34,0,0,0,5.06,1.91,17.42,17.42,0,0,0,2.92.26,18.44,18.44,0,0,0,2.91-.23,17.67,17.67,0,0,0,5.55-1.9l.4.75a18.82,18.82,0,0,1-5.81,2A19.31,19.31,0,0,1,246.42,116.28Zm12.51-23.35h0Z"/><rect class="cls-1" x="170.49" y="66.41" width="0.84" height="12.39"/><rect class="cls-1" x="164.95" y="66.95" width="0.84" height="12.39"/><rect class="cls-1" x="167.72" y="65.87" width="0.84" height="12.39"/><rect class="cls-1" x="162.17" y="65.87" width="0.84" height="12.39"/><rect class="cls-1" x="159.4" y="66.95" width="0.84" height="12.39"/><rect class="cls-1" x="170.49" y="85.27" width="0.84" height="48.63"/><rect class="cls-1" x="164.95" y="87.41" width="0.84" height="48.63"/><rect class="cls-1" x="167.72" y="83.14" width="0.84" height="48.63"/><rect class="cls-1" x="162.17" y="83.14" width="0.84" height="48.63"/><rect class="cls-1" x="159.4" y="87.41" width="0.84" height="48.63"/><rect class="cls-1" x="95.77" y="66.41" width="0.84" height="12.39"/><rect class="cls-1" x="90.23" y="66.95" width="0.84" height="12.39"/><rect class="cls-1" x="93" y="65.87" width="0.84" height="12.39"/><rect class="cls-1" x="87.45" y="65.87" width="0.84" height="12.39"/><rect class="cls-1" x="84.68" y="66.95" width="0.84" height="12.39"/><rect class="cls-1" x="95.77" y="85.27" width="0.84" height="48.63"/><rect class="cls-1" x="90.23" y="87.41" width="0.84" height="48.63"/><rect class="cls-1" x="93" y="83.14" width="0.84" height="48.63"/><rect class="cls-1" x="87.45" y="83.14" width="0.84" height="48.63"/><rect class="cls-1" x="84.68" y="87.41" width="0.84" height="48.63"/><rect class="cls-1" x="291.49" y="65.36" width="0.84" height="70.71"/><rect class="cls-1" x="285.26" y="68.46" width="0.84" height="70.71"/><rect class="cls-1" x="288.37" y="62.26" width="0.84" height="70.71"/><rect class="cls-1" x="282.15" y="62.26" width="0.84" height="70.71"/><rect class="cls-1" x="279.03" y="68.46" width="0.84" height="70.71"/><path class="cls-1" d="M106.62,118.93l0-.84a16.49,16.49,0,0,0,7.76-2.3,30.88,30.88,0,0,0,7.67-7.93l.72.43a31.86,31.86,0,0,1-8,8.22A17.12,17.12,0,0,1,106.62,118.93Z"/><path class="cls-1" d="M107.74,123.21l-.07-.84a20.56,20.56,0,0,0,9.66-3.35,21,21,0,0,0,6.92-7.52l.74.4a21.9,21.9,0,0,1-7.2,7.83A21.41,21.41,0,0,1,107.74,123.21Z"/><path class="cls-1" d="M105.86,121.13v-.84a18.82,18.82,0,0,0,8.88-2.25c2.68-1.42,6.32-5.2,8.05-7.83l.7.46c-1.77,2.71-5.47,6.58-8.35,8.12A19.69,19.69,0,0,1,105.86,121.13Z"/><path class="cls-1" d="M105.86,125.47v-.84a23.24,23.24,0,0,0,11-2.77c3.44-1.84,7.18-6,9.21-9.07l.7.46c-2.08,3.17-6,7.45-9.52,9.36A24.06,24.06,0,0,1,105.86,125.47Z"/><path class="cls-1" d="M108.11,127.54l-.07-.84a25,25,0,0,0,11.67-4,21,21,0,0,0,7.74-8l.74.41a21.66,21.66,0,0,1-8,8.3A25.79,25.79,0,0,1,108.11,127.54Z"/><path class="cls-1" d="M129.07,88l-.7-.47A28.68,28.68,0,0,1,137,79.21a25.79,25.79,0,0,1,12.2-3.62l0,.84a25,25,0,0,0-11.8,3.5A27.8,27.8,0,0,0,129.07,88Z"/><path class="cls-1" d="M132.89,90.09l-.71-.47A21.65,21.65,0,0,1,140,82.48a21.93,21.93,0,0,1,10.28-2.59v.84a21.23,21.23,0,0,0-9.88,2.49A20.69,20.69,0,0,0,132.89,90.09Z"/><path class="cls-1" d="M130.33,90.07l-.72-.43a24.09,24.09,0,0,1,7.61-8,23.53,23.53,0,0,1,11-3.81l.06.84a22.73,22.73,0,0,0-10.63,3.67A23.35,23.35,0,0,0,130.33,90.07Z"/><path class="cls-1" d="M133.85,92.67l-.74-.41a19.71,19.71,0,0,1,6.49-7,19.25,19.25,0,0,1,9-3.12l.06.84a18.49,18.49,0,0,0-8.62,3A18.94,18.94,0,0,0,133.85,92.67Z"/><path class="cls-1" d="M136.5,92.49l-.7-.47a17.32,17.32,0,0,1,6.28-5.72,17.67,17.67,0,0,1,8.22-2.07v.84a17,17,0,0,0-7.83,2A16.51,16.51,0,0,0,136.5,92.49Z"/><path class="cls-1" d="M148.26,116.41a16.29,16.29,0,0,1-10.08-5.32,17,17,0,0,1-1.73-2.35c0-.08-.09-.16-.14-.24l-.22-.38-.67-1.34-.29-.69a10.7,10.7,0,0,1-.42-1.24l-.39-1.68c-.24-1.16-.56-2.34-.88-3.48l-.16-.57a48.66,48.66,0,0,0-3.15-8,34.27,34.27,0,0,0-5-7.45,28.82,28.82,0,0,0-3.41-3.22,28,28,0,0,0-4-2.63,24.33,24.33,0,0,0-9.27-2.74l.07-.84a25.07,25.07,0,0,1,9.59,2.84,28.14,28.14,0,0,1,4.13,2.71,30.42,30.42,0,0,1,3.5,3.31,35.12,35.12,0,0,1,5.14,7.63,50,50,0,0,1,3.21,8.12l.16.59c.32,1.15.65,2.34.9,3.52l.38,1.65a11.67,11.67,0,0,0,.38,1.14l.28.66.32.65.32.64.2.33.15.25a15.37,15.37,0,0,0,11.18,7.26Z"/><path class="cls-1" d="M150.3,122.09A21.75,21.75,0,0,1,136,116.71a22.73,22.73,0,0,1-7.32-13.46,39.33,39.33,0,0,0-6-13.79,23,23,0,0,0-5.28-5.31,19.19,19.19,0,0,0-6.78-3.1l.19-.82a20,20,0,0,1,7.08,3.23A23.66,23.66,0,0,1,123.32,89a40.19,40.19,0,0,1,6.16,14.11,21.89,21.89,0,0,0,7.05,13,21.24,21.24,0,0,0,6.42,3.84,21.67,21.67,0,0,0,7.35,1.34Z"/><path class="cls-1" d="M145.58,118.71a18.7,18.7,0,0,1-3.21-1.13,19.33,19.33,0,0,1-3-1.71,20.27,20.27,0,0,1-2.6-2.19l-.4-.43a10.5,10.5,0,0,1-.75-.86l-.52-.64-.5-.7a8.12,8.12,0,0,1-.59-.93l-.3-.5-.17-.31c-.21-.41-.41-.8-.62-1.24a15.39,15.39,0,0,1-1.08-3.13,59.16,59.16,0,0,0-2.14-7.7,38.74,38.74,0,0,0-3.47-7.35A29.14,29.14,0,0,0,121,83.46a27,27,0,0,0-3.42-2.52,22.45,22.45,0,0,0-3.87-1.85A22.1,22.1,0,0,0,109.51,78a18.84,18.84,0,0,0-2.16-.2c-.4,0-.76,0-1.11,0h-.43l-.25,0-.56,0-.11-.83c.28,0,.43,0,.61-.06l.26,0,.46,0c.36,0,.74,0,1.16,0,.67,0,1.39.1,2.25.22A22.2,22.2,0,0,1,114,78.3a23.65,23.65,0,0,1,4,1.91,26.65,26.65,0,0,1,3.54,2.62A30.06,30.06,0,0,1,127,89.44,39.91,39.91,0,0,1,130.53,97a62,62,0,0,1,2.18,7.81,13.68,13.68,0,0,0,1,3c.2.42.4.81.6,1.2l.15.28c.09.14.19.32.3.5a8.82,8.82,0,0,0,.54.85l.49.7.51.62a8.91,8.91,0,0,0,.7.8c.14.14.27.29.4.43a18.59,18.59,0,0,0,2.47,2.08,19.13,19.13,0,0,0,2.83,1.64,18.56,18.56,0,0,0,3.05,1.07Z"/><path class="cls-1" d="M144.2,124.08a24.9,24.9,0,0,1-4.16-1.46,25.18,25.18,0,0,1-3.82-2.22,23.88,23.88,0,0,1-3.35-2.82l-.45-.47c-.35-.38-.71-.76-1-1.19l-.67-.83-.64-.91c-.3-.4-.56-.85-.82-1.28-.11-.19-.22-.38-.34-.57-.33-.63-.7-1.32-1-2a20.36,20.36,0,0,1-1.46-4.29,54,54,0,0,0-1.93-6.95,27.69,27.69,0,0,0-7.24-11.51,20.63,20.63,0,0,0-2.62-1.93,16.57,16.57,0,0,0-2.89-1.38,15.48,15.48,0,0,0-3.08-.79,12.84,12.84,0,0,0-1.56-.15c-.26,0-.51,0-.75,0h-.24l-.37,0-.07-.83.39,0h.27a7.18,7.18,0,0,1,.8,0,14.16,14.16,0,0,1,1.65.15,16.52,16.52,0,0,1,3.25.84,17.56,17.56,0,0,1,3,1.45,20.64,20.64,0,0,1,2.74,2,28.62,28.62,0,0,1,7.48,11.86,55.52,55.52,0,0,1,2,7,19.12,19.12,0,0,0,1.4,4.12c.29.63.65,1.31,1,1.9.11.17.22.37.34.57a13.15,13.15,0,0,0,.77,1.21l.63.89.67.82a12.91,12.91,0,0,0,1,1.13l.43.46a22.56,22.56,0,0,0,3.24,2.72,22.88,22.88,0,0,0,3.69,2.14,23.19,23.19,0,0,0,4,1.41Z"/><path class="cls-1" d="M150.3,127.64a27.27,27.27,0,0,1-24.05-14.4l-.16-.31c-.31-.61-.64-1.24-.89-1.85-.36-.81-.65-1.58-.9-2.33-.14-.45-.27-.88-.37-1.31-.06-.23-.11-.46-.16-.69l-.49-2.15a34.35,34.35,0,0,0-5.12-11.87,15.23,15.23,0,0,0-8.85-6.28l.19-.82a16,16,0,0,1,9.34,6.6,35,35,0,0,1,5.26,12.18l.49,2.16.15.67c.11.41.22.82.37,1.25.23.73.52,1.46.86,2.26.25.58.55,1.17.87,1.79l.16.31a26.41,26.41,0,0,0,5.88,7.39,26.39,26.39,0,0,0,17.42,6.55Z"/><polygon class="cls-1" points="198.46 105.02 186.17 73.42 186.92 73.13 198.46 102.81 209.99 73.13 210.74 73.42 198.46 105.02"/><polygon class="cls-1" points="198.46 118.56 182.75 78.15 183.5 77.86 198.46 116.35 216.36 70.28 217.11 70.57 198.46 118.56"/><polygon class="cls-1" points="198.46 111.79 182.25 70.1 183 69.81 198.46 109.58 210.97 77.39 211.71 77.68 198.46 111.79"/><polygon class="cls-1" points="198.46 125.33 177.36 71.04 178.1 70.75 198.46 123.12 215.86 78.33 216.61 78.62 198.46 125.33"/><polygon class="cls-1" points="198.46 132.09 177.86 79.09 178.6 78.8 198.46 129.89 221.25 71.22 222 71.51 198.46 132.09"/></svg>