<svg xmlns="http://www.w3.org/2000/svg" viewBox="0 0 319.25 201.43"><defs>
<style>
.cls-1{fill:#f4aa14;}
.cls-2{fill:#ec6a1a;}
.cls-3{fill:#cd1241;}
.cls-4{fill:#00699b;}
.cls-5,.cls-6,.cls-7,.cls-8{fill:none;stroke-miterlimit:10;stroke-width:0.8px;}.cls-5{stroke:#f4aa14;}
.cls-6{stroke:#ec6a1a;}
.cls-7{stroke:#cd1241;}.cls-8{stroke:#00699b;}
</style>
</defs><path class="cls-1" d="M19.86,139.36H19V101.15l0-19.26A33.43,33.43,0,0,1,21.36,70a26.71,26.71,0,0,1,3.12-5.69,27.52,27.52,0,0,1,4.4-4.81,26.86,26.86,0,0,1,11.62-5.8,32.26,32.26,0,0,1,6.09-.78,32.79,32.79,0,0,1,6.15.33,29.8,29.8,0,0,1,6.12,1.62,27.27,27.27,0,0,1,5.74,3,28.09,28.09,0,0,1,4.88,4.26,27.22,27.22,0,0,1,3.78,5.3,27.51,27.51,0,0,1,3.31,12.46,30.94,30.94,0,0,1-.47,6.27,25.76,25.76,0,0,1-2,6.3,24.79,24.79,0,0,1-3.56,5.64,27.94,27.94,0,0,1-4.69,4.47,28.88,28.88,0,0,1-11.65,5.12l-.16-.83a27.9,27.9,0,0,0,11.3-5,26.71,26.71,0,0,0,4.55-4.34,24.44,24.44,0,0,0,3.45-5.45A25.11,25.11,0,0,0,75.27,86a30.77,30.77,0,0,0,.46-6.1,26.56,26.56,0,0,0-3.21-12.08,25.91,25.91,0,0,0-3.67-5.14,26.83,26.83,0,0,0-10.29-7,28.17,28.17,0,0,0-6-1.57,31.05,31.05,0,0,0-6-.33,31.49,31.49,0,0,0-5.93.76,26.14,26.14,0,0,0-11.26,5.61,27.8,27.8,0,0,0-4.27,4.67,26.6,26.6,0,0,0-3,5.51A32.71,32.71,0,0,0,19.88,81.9l0,19.25Z"/><path class="cls-2" d="M26.78,132.66h-.84V84.09c0-1.31,0-2.66.11-4a27.29,27.29,0,0,1,.8-4.77,21.19,21.19,0,0,1,4.47-8.57,19.52,19.52,0,0,1,7.93-5.51,25.35,25.35,0,0,1,9.54-1.45,23,23,0,0,1,9.39,2.28A20.5,20.5,0,0,1,69.39,77.14a23.07,23.07,0,0,1-.54,9.65,18.71,18.71,0,0,1-4.94,8.3,20.84,20.84,0,0,1-8.24,5,28.14,28.14,0,0,1-9.56,1.28l0-.85a27.33,27.33,0,0,0,9.28-1.23,20,20,0,0,0,7.91-4.84A17.87,17.87,0,0,0,68,86.56a22.2,22.2,0,0,0,.51-9.29A19.61,19.61,0,0,0,57.81,62.83a22,22,0,0,0-9-2.2A24.49,24.49,0,0,0,39.55,62,18.77,18.77,0,0,0,32,67.31a20.27,20.27,0,0,0-4.28,8.22,25.86,25.86,0,0,0-.78,4.63c-.11,1.3-.11,2.64-.11,3.93Z"/><path class="cls-2" d="M23.32,146.06h-.84V82.77l0-1.32c0-1,.11-1.84.2-2.69a27.21,27.21,0,0,1,3.35-10.55A23.63,23.63,0,0,1,33.9,60,24.67,24.67,0,0,1,44.54,56.5,30.49,30.49,0,0,1,50,56.39a26.4,26.4,0,0,1,5.49,1,24.07,24.07,0,0,1,9.84,5.46,23.83,23.83,0,0,1,6.32,9.34A25.27,25.27,0,0,1,73,83.26,22.68,22.68,0,0,1,69.28,94a23.89,23.89,0,0,1-8.35,7.6l-.41-.73a23.14,23.14,0,0,0,8.07-7.35,22.27,22.27,0,0,0,3.58-10.34,24.46,24.46,0,0,0-1.32-10.73,23,23,0,0,0-6.1-9,23.37,23.37,0,0,0-9.5-5.27,25.43,25.43,0,0,0-5.32-.93,29.89,29.89,0,0,0-5.31.11,23.82,23.82,0,0,0-10.27,3.42,22.65,22.65,0,0,0-7.57,7.87,26.19,26.19,0,0,0-3.24,10.22c-.09.83-.15,1.69-.19,2.62l0,2.5Z"/><path class="cls-3" d="M30.24,146.06H29.4V82.78l0-1.08c0-.79.08-1.49.16-2.16A19.79,19.79,0,0,1,32,71.67a16.68,16.68,0,0,1,5.53-5.76,17.68,17.68,0,0,1,7.7-2.53,21.59,21.59,0,0,1,8.31.62,17.28,17.28,0,0,1,7.06,3.9,16.87,16.87,0,0,1,4.51,6.65,18.28,18.28,0,0,1,1,8.07,16,16,0,0,1-2.59,7.53,17.13,17.13,0,0,1-5.93,5.39l-.41-.74a16.23,16.23,0,0,0,5.65-5.12,15,15,0,0,0,2.44-7.14,17.53,17.53,0,0,0-.92-7.7,16.14,16.14,0,0,0-4.29-6.32,16.38,16.38,0,0,0-6.73-3.71,20.69,20.69,0,0,0-8-.59A16.77,16.77,0,0,0,38,66.62a15.81,15.81,0,0,0-5.25,5.47,19.21,19.21,0,0,0-2.36,7.54c-.07.65-.12,1.33-.15,2.09l0,2.25Z"/><path class="cls-4" d="M33.7,132.66h-.85V82.58c0-.61,0-1.24.08-1.92a21.26,21.26,0,0,1,.6-3.57,14.14,14.14,0,0,1,3-5.79,12.64,12.64,0,0,1,5.15-3.58A15.65,15.65,0,0,1,45,66.9c.55-.08,1.15-.14,1.79-.17s1.29,0,1.83,0a17.49,17.49,0,0,1,3.41.45,15.45,15.45,0,0,1,3.15,1.13A13.46,13.46,0,0,1,57.83,70a14.81,14.81,0,0,1,2.25,2.37,13.05,13.05,0,0,1,2.48,5.84,16.14,16.14,0,0,1,.16,3.38,15.22,15.22,0,0,1-.52,3.26A11.9,11.9,0,0,1,59,90.18a13.79,13.79,0,0,1-5.54,3.38,17.72,17.72,0,0,1-3.41.75c-.58.07-1.19.12-1.85.15l-2.12,0v-.84l2.09,0c.63,0,1.21-.08,1.77-.14a17.88,17.88,0,0,0,3.26-.72,13,13,0,0,0,5.21-3.18,10.94,10.94,0,0,0,2.94-4.92,14.69,14.69,0,0,0,.49-3.08,15.14,15.14,0,0,0-.15-3.2,12.39,12.39,0,0,0-2.32-5.47,14.87,14.87,0,0,0-2.12-2.23A13,13,0,0,0,54.75,69a14.89,14.89,0,0,0-3-1.07,16.42,16.42,0,0,0-3.23-.43c-.52,0-1.15,0-1.76,0a16.69,16.69,0,0,0-1.72.17,15,15,0,0,0-3.09.77,11.75,11.75,0,0,0-4.82,3.35,13.3,13.3,0,0,0-2.81,5.44,19.8,19.8,0,0,0-.57,3.43c-.05.66-.07,1.26-.08,1.85v50.08Z"/><path class="cls-1" d="M246.41,126.11a29.24,29.24,0,0,1-7.95-1.1,24.88,24.88,0,0,1-4.77-1.91,27,27,0,0,1-4.25-2.85,26.54,26.54,0,0,1-9.4-17.42,28.56,28.56,0,0,1-.11-5,26.42,26.42,0,0,1,5.19-14.07c.5-.67,1-1.32,1.61-2s1-1.1,1.68-1.72A24.39,24.39,0,0,1,232.53,77a25.64,25.64,0,0,1,9.58-3.4,29.84,29.84,0,0,1,4.91-.29,27.91,27.91,0,0,1,5,.56,25.4,25.4,0,0,1,9.34,4,27.68,27.68,0,0,1,7,7.07l.2.31c.05.07.1.13.18.26l.49.79c.24.37.46.78.68,1.17l.27.48c.21.37.39.75.56,1.11.09.2.19.39.29.59l.49,1.12c.08.19.16.39.25.59l1.94,4.9a.58.58,0,0,1,.05.35l0,.16-4,2.59a7.73,7.73,0,0,1-.82.5l-14.22,7.74-.4-.74,14.22-7.75a6.92,6.92,0,0,0,.76-.45l3.55-2.32L271,91.66c-.08-.18-.16-.39-.25-.59s-.3-.71-.47-1.07c-.1-.19-.19-.39-.29-.6-.18-.36-.34-.71-.54-1.05l-.27-.5c-.21-.37-.42-.76-.65-1.12l-.5-.8-.15-.22-.21-.31a26.61,26.61,0,0,0-6.78-6.85,24.45,24.45,0,0,0-9-3.88,25.21,25.21,0,0,0-4.81-.54,28.16,28.16,0,0,0-4.77.27A25,25,0,0,0,233,77.69a23.62,23.62,0,0,0-4,3c-.64.61-1.09,1.08-1.65,1.68s-1.07,1.24-1.56,1.89a25.5,25.5,0,0,0-5,13.62,27.71,27.71,0,0,0,.11,4.82A25.63,25.63,0,0,0,230,119.59a25.12,25.12,0,0,0,4.12,2.76,23.87,23.87,0,0,0,4.61,1.85,26.48,26.48,0,0,0,4.74.91,28.84,28.84,0,0,0,4.75.11,28.49,28.49,0,0,0,9.27-2.17,34.21,34.21,0,0,0,7.89-4.7l.51.66a34.76,34.76,0,0,1-8.08,4.82,29.3,29.3,0,0,1-9.55,2.23C247.62,126.09,247,126.11,246.41,126.11Z"/><path class="cls-2" d="M246.43,120.57a24.58,24.58,0,0,1-4.1-.35,19.47,19.47,0,0,1-7.44-2.85,20.49,20.49,0,0,1-5.72-5.53,21,21,0,0,1-3.22-7.27,22.11,22.11,0,0,1-.32-7.95,20.91,20.91,0,0,1,2.6-7.52,22.19,22.19,0,0,1,5.21-6c8.45-6.74,22.21-5.26,28.88,3.09a26.16,26.16,0,0,1,4.1,6.79c.05.15.11.27.16.4a1.4,1.4,0,0,1,.18,1.22,1,1,0,0,1-.68.46l-18.89,10.29-.4-.74,19.06-10.36a.51.51,0,0,0,.17-.06c0-.05-.13-.31-.2-.46a4.1,4.1,0,0,1-.19-.46,25.27,25.27,0,0,0-4-6.54c-6.4-8-19.6-9.44-27.71-3a21.6,21.6,0,0,0-5,5.78,20.35,20.35,0,0,0-2.5,7.22,21.52,21.52,0,0,0,.31,7.64,20,20,0,0,0,3.1,7,19.66,19.66,0,0,0,5.48,5.31,19,19,0,0,0,7.12,2.72A23,23,0,0,0,257.4,117l.4.74a24.22,24.22,0,0,1-7.52,2.57A25,25,0,0,1,246.43,120.57Z"/><path class="cls-2" d="M246.42,123.34l-1,0a25,25,0,0,1-8.76-1.88,21.44,21.44,0,0,1-4-2.23,23.15,23.15,0,0,1-3.44-3,23.63,23.63,0,0,1-4.87-7.58A24.34,24.34,0,0,1,224.26,91a23.34,23.34,0,0,1,4.82-7.63l.74-.76c.27-.27.55-.53.83-.79a20.83,20.83,0,0,1,1.78-1.45,21.49,21.49,0,0,1,4-2.3,23.89,23.89,0,0,1,8.77-2,24.41,24.41,0,0,1,8.88,1.2,23.16,23.16,0,0,1,7.83,4.52,26.63,26.63,0,0,1,3.1,3.26c.4.51.82,1.08,1.31,1.8l.22.36c.18.28.37.57.54.87l.25.44c.16.28.32.56.46.84a48.7,48.7,0,0,1,2.09,4.74l.42,1,.08.11,0,.23a.52.52,0,0,1-.27.34l-1.64,1-.7.44c-.55.33-1.11.68-1.74,1l-7.8,4.25-.41-.73,7.82-4.26c.6-.31,1.15-.65,1.68-1l.71-.44,1.42-.86-.33-.82c-.65-1.62-1.26-3.14-2.06-4.68-.13-.27-.29-.53-.44-.8s-.17-.29-.25-.45-.34-.55-.52-.83l-.22-.35c-.47-.69-.87-1.24-1.26-1.73a24.86,24.86,0,0,0-3-3.15,22.31,22.31,0,0,0-7.55-4.36,23.61,23.61,0,0,0-8.57-1.16,23.12,23.12,0,0,0-8.47,1.93,20.75,20.75,0,0,0-3.82,2.21c-.59.43-1.16.9-1.71,1.39l-.79.76-.73.76A22.65,22.65,0,0,0,225,91.3a23.16,23.16,0,0,0,4.77,24.37,22.17,22.17,0,0,0,3.33,2.85,20.87,20.87,0,0,0,3.85,2.14,24,24,0,0,0,8.46,1.82,26.17,26.17,0,0,0,8.52-1.11,28.45,28.45,0,0,0,7.65-3.73A43,43,0,0,0,268,112.3l.6.6a44,44,0,0,1-6.47,5.43,29.45,29.45,0,0,1-7.88,3.85A26.66,26.66,0,0,1,246.42,123.34Zm23.24-28.26h0Z"/><path class="cls-3" d="M246.43,117.79h-.81a19.56,19.56,0,0,1-6.8-1.45,14.75,14.75,0,0,1-3-1.67,17.6,17.6,0,0,1-2.62-2.24,18.55,18.55,0,0,1-3.73-5.81,18.94,18.94,0,0,1,0-13.61,17.63,17.63,0,0,1,3.68-5.82l.63-.65q.31-.32.63-.6a17.1,17.1,0,0,1,1.33-1.09,16.4,16.4,0,0,1,3-1.71,18.41,18.41,0,0,1,6.74-1.52,19.24,19.24,0,0,1,6.89.91A17.39,17.39,0,0,1,258.23,86a18.62,18.62,0,0,1,2.4,2.53c.4.5.77,1,1,1.42s.41.64.57.93a17.68,17.68,0,0,1,.9,1.91l.15.39-.05.15a.66.66,0,0,1-.34.33l-.06,0-7.32,4-.4-.73,7.2-3.93a15.15,15.15,0,0,0-.82-1.72c-.16-.29-.33-.56-.53-.87s-.61-.89-1-1.36a18.93,18.93,0,0,0-2.29-2.43A16.75,16.75,0,0,0,252,83.32a18.47,18.47,0,0,0-6.59-.87A17.39,17.39,0,0,0,239,83.9a15.24,15.24,0,0,0-2.8,1.62,15.7,15.7,0,0,0-1.26,1c-.2.19-.4.37-.6.57l-.62.64a17,17,0,0,0-3.51,5.55,17.51,17.51,0,0,0-1.18,6.5,17.34,17.34,0,0,0,1.24,6.48,17.57,17.57,0,0,0,3.55,5.55,16.54,16.54,0,0,0,2.5,2.13,15,15,0,0,0,2.83,1.59,18.52,18.52,0,0,0,6.5,1.37,20,20,0,0,0,6.69-.86c3.86-1.17,7.79-3.75,11.68-7.67l.6.59c-4,4-8,6.68-12,7.89A21.16,21.16,0,0,1,246.43,117.79Z"/><path class="cls-4" d="M246.42,115h-.09a19,19,0,0,1-3.05-.27,14.15,14.15,0,0,1-5.38-2,15,15,0,0,1-4.17-4,15.27,15.27,0,0,1-2.37-5.36,16.6,16.6,0,0,1-.24-5.93A15.27,15.27,0,0,1,233,91.89a14.61,14.61,0,0,1,1.71-2.38c.17-.19.31-.35.52-.56l.17-.18c.14-.14.28-.29.4-.4a11.92,11.92,0,0,1,1.07-1A13.54,13.54,0,0,1,242,84.9a16,16,0,0,1,2.94-.49,19.54,19.54,0,0,1,3.06,0,14.8,14.8,0,0,1,5.55,1.62,15.94,15.94,0,0,1,4.56,3.7c.29.35.6.74.93,1.2l.41.61.09.16.09.12,0,.24a.47.47,0,0,1-.3.34l-14.75,8-.4-.74,14.47-7.88-.28-.4a13.4,13.4,0,0,0-.89-1.14,14.54,14.54,0,0,0-4.31-3.5,13.62,13.62,0,0,0-5.23-1.53,17.78,17.78,0,0,0-2.92,0,16.41,16.41,0,0,0-2.79.46,12.88,12.88,0,0,0-4.77,2.37c-.34.27-.68.57-1,.89l-.37.39-.18.17c-.19.21-.33.35-.49.54a13.94,13.94,0,0,0-1.61,2.24A14.45,14.45,0,0,0,232,97.52a15.86,15.86,0,0,0,.23,5.63,14.49,14.49,0,0,0,2.25,5.06,14,14,0,0,0,3.93,3.8,13.5,13.5,0,0,0,5.06,1.91,17.42,17.42,0,0,0,2.92.26,19.71,19.71,0,0,0,2.91-.23,17.67,17.67,0,0,0,5.55-1.9l.4.75a19.06,19.06,0,0,1-5.81,2A18.13,18.13,0,0,1,246.42,115Zm12.51-23.35h0Z"/><rect class="cls-1" x="170.49" y="65.15" width="0.84" height="12.39"/><rect class="cls-2" x="164.95" y="65.69" width="0.84" height="12.39"/><rect class="cls-2" x="167.72" y="64.61" width="0.84" height="12.39"/><rect class="cls-3" x="162.17" y="64.61" width="0.84" height="12.39"/><rect class="cls-4" x="159.4" y="65.69" width="0.84" height="12.39"/><rect class="cls-1" x="170.49" y="84.01" width="0.84" height="48.63"/><rect class="cls-2" x="164.95" y="86.14" width="0.84" height="48.63"/><rect class="cls-2" x="167.72" y="81.88" width="0.84" height="48.63"/><rect class="cls-3" x="162.17" y="81.88" width="0.84" height="48.63"/><rect class="cls-4" x="159.4" y="86.14" width="0.84" height="48.63"/><rect class="cls-1" x="95.77" y="65.15" width="0.84" height="12.39"/><rect class="cls-2" x="90.23" y="65.69" width="0.84" height="12.39"/><rect class="cls-2" x="93" y="64.61" width="0.84" height="12.39"/><rect class="cls-3" x="87.45" y="64.61" width="0.84" height="12.39"/><rect class="cls-4" x="84.68" y="65.69" width="0.84" height="12.39"/><rect class="cls-1" x="95.77" y="84.01" width="0.84" height="48.63"/><rect class="cls-2" x="90.23" y="86.14" width="0.84" height="48.63"/><rect class="cls-2" x="93" y="81.88" width="0.84" height="48.63"/><rect class="cls-3" x="87.45" y="81.88" width="0.84" height="48.63"/><rect class="cls-4" x="84.68" y="86.14" width="0.84" height="48.63"/><rect class="cls-1" x="291.49" y="64.1" width="0.84" height="70.71"/><rect class="cls-2" x="285.26" y="67.2" width="0.84" height="70.71"/><rect class="cls-2" x="288.37" y="61" width="0.84" height="70.71"/><rect class="cls-3" x="282.15" y="61" width="0.84" height="70.71"/><rect class="cls-4" x="279.03" y="67.2" width="0.84" height="70.71"/><path class="cls-1" d="M106.62,117.67l0-.84a16.39,16.39,0,0,0,7.76-2.31,30.57,30.57,0,0,0,7.67-7.93l.72.44a31.86,31.86,0,0,1-8,8.22A17.23,17.23,0,0,1,106.62,117.67Z"/><path class="cls-2" d="M107.74,122l-.07-.84a20.56,20.56,0,0,0,9.66-3.35,21,21,0,0,0,6.92-7.52l.74.4a21.9,21.9,0,0,1-7.2,7.83A21.41,21.41,0,0,1,107.74,122Z"/><path class="cls-2" d="M105.86,119.87V119a18.82,18.82,0,0,0,8.88-2.25c2.68-1.42,6.32-5.2,8.05-7.83l.7.46c-1.77,2.71-5.47,6.58-8.35,8.12A19.69,19.69,0,0,1,105.86,119.87Z"/><path class="cls-3" d="M105.86,124.21v-.84a23.24,23.24,0,0,0,11-2.77c3.44-1.84,7.18-6,9.21-9.07l.7.46c-2.08,3.16-6,7.44-9.52,9.35A24,24,0,0,1,105.86,124.21Z"/><path class="cls-4" d="M108.11,126.28l-.07-.85a24.87,24.87,0,0,0,11.67-4,21,21,0,0,0,7.74-8l.74.4a21.62,21.62,0,0,1-8,8.31A25.79,25.79,0,0,1,108.11,126.28Z"/><path class="cls-1" d="M129.07,86.74l-.7-.48A28.76,28.76,0,0,1,137,78a25.79,25.79,0,0,1,12.2-3.62l0,.84a25,25,0,0,0-11.8,3.5A27.8,27.8,0,0,0,129.07,86.74Z"/><path class="cls-2" d="M132.89,88.82l-.71-.46A21.65,21.65,0,0,1,140,81.22a21.93,21.93,0,0,1,10.28-2.59v.84A21,21,0,0,0,140.42,82,20.75,20.75,0,0,0,132.89,88.82Z"/><path class="cls-2" d="M130.33,88.8l-.72-.42a24.22,24.22,0,0,1,7.61-8,23.63,23.63,0,0,1,11-3.8l.06.84a22.73,22.73,0,0,0-10.63,3.67A23.32,23.32,0,0,0,130.33,88.8Z"/><path class="cls-3" d="M133.85,91.41l-.74-.41a19.71,19.71,0,0,1,6.49-7,19.14,19.14,0,0,1,9-3.12l.06.84a18.38,18.38,0,0,0-8.62,3A18.94,18.94,0,0,0,133.85,91.41Z"/><path class="cls-4" d="M136.5,91.23l-.7-.47A17.32,17.32,0,0,1,142.08,85,17.55,17.55,0,0,1,150.3,83v.84a17,17,0,0,0-7.83,2A16.51,16.51,0,0,0,136.5,91.23Z"/><path class="cls-1" d="M148.26,115.14a16.28,16.28,0,0,1-10.08-5.31,17,17,0,0,1-1.73-2.35c0-.08-.09-.16-.14-.24l-.22-.38-.67-1.34-.29-.69a10.7,10.7,0,0,1-.42-1.24l-.39-1.68c-.24-1.16-.56-2.34-.88-3.48l-.16-.58a49.39,49.39,0,0,0-3.15-8,34.44,34.44,0,0,0-5-7.44,28.82,28.82,0,0,0-3.41-3.22,27.15,27.15,0,0,0-4-2.63,24.33,24.33,0,0,0-9.27-2.74l.07-.84a25.07,25.07,0,0,1,9.59,2.84,28.14,28.14,0,0,1,4.13,2.71,30.42,30.42,0,0,1,3.5,3.31,34.88,34.88,0,0,1,5.14,7.63,49.6,49.6,0,0,1,3.21,8.12l.16.59c.32,1.15.65,2.34.9,3.52l.38,1.65a10.73,10.73,0,0,0,.38,1.13l.28.67.32.65.32.64.2.32.15.26a15.37,15.37,0,0,0,11.18,7.26Z"/><path class="cls-2" d="M150.3,120.83a22.45,22.45,0,0,1-7.65-1.39,22.07,22.07,0,0,1-6.67-4A22.68,22.68,0,0,1,128.66,102a39.33,39.33,0,0,0-6-13.79,23,23,0,0,0-5.28-5.32,19.34,19.34,0,0,0-6.78-3.09l.19-.83a20.19,20.19,0,0,1,7.08,3.24,23.66,23.66,0,0,1,5.47,5.51,40.11,40.11,0,0,1,6.16,14.11,21.89,21.89,0,0,0,7.05,13,21.45,21.45,0,0,0,6.42,3.84A21.67,21.67,0,0,0,150.3,120Z"/><path class="cls-2" d="M145.58,117.45a18.19,18.19,0,0,1-6.17-2.85,19.48,19.48,0,0,1-2.6-2.18l-.4-.43a10.5,10.5,0,0,1-.75-.86l-.52-.64-.5-.7a9.1,9.1,0,0,1-.59-.93l-.3-.5-.17-.31c-.21-.41-.41-.8-.62-1.24a15.39,15.39,0,0,1-1.08-3.13,59.16,59.16,0,0,0-2.14-7.7,39.14,39.14,0,0,0-3.47-7.36A29.31,29.31,0,0,0,121,82.2a28.08,28.08,0,0,0-3.42-2.53,23.16,23.16,0,0,0-3.87-1.84,21.36,21.36,0,0,0-4.16-1.07,18.84,18.84,0,0,0-2.16-.2c-.4,0-.76,0-1.11,0h-.43l-.25,0-.56,0-.11-.83c.28,0,.43,0,.61-.06l.26,0,.46,0c.36,0,.74,0,1.16,0a21,21,0,0,1,2.25.22A21.51,21.51,0,0,1,114,77,23.65,23.65,0,0,1,118,79a26.65,26.65,0,0,1,3.54,2.62A30.06,30.06,0,0,1,127,88.18a39.62,39.62,0,0,1,3.54,7.52,61.54,61.54,0,0,1,2.18,7.81,13.68,13.68,0,0,0,1,2.95c.2.42.4.8.6,1.2l.15.28c.09.14.19.32.3.5a8.82,8.82,0,0,0,.54.85l.49.7.51.62a8.91,8.91,0,0,0,.7.8c.14.14.27.28.4.43a18.59,18.59,0,0,0,2.47,2.08,20.05,20.05,0,0,0,2.83,1.64,18.56,18.56,0,0,0,3.05,1.07Z"/><path class="cls-3" d="M144.2,122.82a24.9,24.9,0,0,1-4.16-1.46,25.42,25.42,0,0,1-7.17-5l-.45-.48a15.09,15.09,0,0,1-1-1.18l-.67-.83-.64-.91c-.3-.41-.56-.85-.82-1.28-.11-.19-.22-.38-.34-.57-.33-.63-.7-1.32-1-2a20.43,20.43,0,0,1-1.46-4.3,54.25,54.25,0,0,0-1.93-6.94,27.69,27.69,0,0,0-7.24-11.51,19.7,19.7,0,0,0-2.62-1.93A16.57,16.57,0,0,0,111.77,83a16.22,16.22,0,0,0-3.08-.8,14.9,14.9,0,0,0-1.56-.14c-.26,0-.51,0-.75,0h-.24l-.37,0-.07-.84.39,0h.27c.25,0,.53,0,.8,0,.48,0,1,.07,1.65.16a16.52,16.52,0,0,1,3.25.84,17.56,17.56,0,0,1,3,1.45,20.64,20.64,0,0,1,2.74,2,28.56,28.56,0,0,1,7.48,11.86,55.52,55.52,0,0,1,2,7,19.3,19.3,0,0,0,1.4,4.12c.29.63.65,1.31,1,1.9.11.17.22.37.34.57.25.42.49.83.77,1.21l.63.89.67.82a12.91,12.91,0,0,0,1,1.13l.43.46a22.56,22.56,0,0,0,3.24,2.72,22.88,22.88,0,0,0,3.69,2.14,24.06,24.06,0,0,0,4,1.41Z"/><path class="cls-4" d="M150.3,126.37A27.24,27.24,0,0,1,126.25,112l-.16-.31c-.31-.61-.64-1.25-.89-1.85-.36-.81-.65-1.58-.9-2.33-.14-.45-.27-.88-.37-1.31-.06-.23-.11-.46-.16-.69l-.49-2.15a34.18,34.18,0,0,0-5.12-11.87,15.3,15.3,0,0,0-8.85-6.29l.19-.82A16.11,16.11,0,0,1,118.84,91a35,35,0,0,1,5.26,12.18l.49,2.16.15.67c.11.4.22.82.37,1.25.23.73.52,1.46.86,2.26.25.58.55,1.17.87,1.79l.16.31a26.41,26.41,0,0,0,5.88,7.39,26.39,26.39,0,0,0,17.42,6.55Z"/><polyline class="cls-5" points="186.55 72.01 198.46 102.66 210.37 72.01"/><polyline class="cls-6" points="183.12 76.74 198.46 116.19 216.73 69.17"/><polyline class="cls-6" points="182.63 68.69 198.46 109.42 211.34 76.27"/><polyline class="cls-7" points="177.73 69.64 198.46 122.96 216.24 77.21"/><polyline class="cls-8" points="178.23 77.69 198.46 129.73 221.63 70.11"/></svg>